<svg width="544" height="544" fill="none" xmlns="http://www.w3.org/2000/svg"><path fill-rule="evenodd" clip-rule="evenodd" d="M272 0C54.4 0 0 54.4 0 272s54.4 272 272 272 272-54.4 272-272S489.6 0 272 0Z" fill="url(#a)"/><path fill-rule="evenodd" clip-rule="evenodd" d="M271.24 154c-50.561 0-94.145 33.013-111.777 80.125a8.5 8.5 0 0 1-15.921-5.959C163.429 175.027 212.956 137 271.24 137c58.3 0 108.703 38.686 128.253 92.602a8.5 8.5 0 0 1-15.982 5.796C366.188 187.624 321.785 154 271.24 154ZM271.24 390c-50.561 0-94.145-33.013-111.777-80.125a8.5 8.5 0 0 0-15.921 5.959C163.429 368.973 212.956 407 271.24 407c58.3 0 108.703-38.686 128.253-92.602a8.5 8.5 0 0 0-15.982-5.796C366.188 356.376 321.785 390 271.24 390Z" fill="#fff"/><path d="M143.502 288.783c0-2.118.89-4.109 2.5-5.507l22.111-24.442h-19.866c-2.288.085-4.194-1.694-4.236-3.981v-.593c-.212-2.288 1.482-4.363 3.77-4.533h27.872a4.91 4.91 0 0 1 5.422 4.363v.678c-.127 2.245-1.143 4.321-2.838 5.761l-22.281 24.229h21.095c2.288-.127 4.194 1.652 4.321 3.94v.635a4.194 4.194 0 0 1-3.813 4.575H148.67c-2.796 0-5.125-2.16-5.168-4.956v-.169ZM207.701 283.996l-2.626 6.778a4.847 4.847 0 0 1-4.702 3.643 4.69 4.69 0 0 1-4.914-4.279c0-1.016.17-2.033.593-2.965l12.581-31.388c2.033-4.956 4.617-6.439 8.387-6.439h.593c3.77 0 6.397 1.483 8.345 6.439l12.75 31.303c.382.848.636 1.779.678 2.711-.085 2.627-2.245 4.702-4.871 4.66h-.212c-2.203-.085-4.151-1.567-4.787-3.685l-2.541-6.736h-19.274v-.042Zm16.055-8.472-6.312-16.944h-.212l-6.439 16.944h12.963ZM254.474 289.926v-36.259c0-2.5 1.482-3.982 4.278-3.982h14.445c11.013 0 16.393 5.718 16.393 12.708 0 6.989-2.372 7.709-6.057 9.488 4.278 1.313 7.201 5.21 7.243 9.658 0 7.244-5.719 12.369-16.181 12.369h-15.843c-2.838 0-4.32-1.567-4.32-3.982h.042Zm18.596-21.222c4.32 0 6.735-1.948 6.735-5.168 0-3.219-2.499-5.167-6.989-5.167h-7.371c-1.059 0-1.525.423-1.525 1.821v8.514h9.192-.042Zm7.794 11.734c0-2.626-2.033-4.49-5.973-4.49h-11.013v7.455c0 1.398.466 1.821 1.525 1.821h8.81c4.829 0 6.651-1.863 6.651-4.786ZM325.756 285.606c6.1 0 10.42-4.152 10.42-10.887v-21.476c0-2.415 2.034-4.024 4.702-4.024 2.669 0 4.702 1.609 4.702 4.024v21.9c0 11.479-7.455 19.697-19.824 19.697-12.369 0-19.697-8.175-19.697-19.697v-21.9c0-2.415 1.948-4.024 4.702-4.024 2.753 0 4.702 1.609 4.702 4.024v21.476c0 6.735 4.236 10.887 10.293 10.887ZM393.826 294.332h-.254c-2.711 0-4.49-1.059-6.523-3.897l-18.257-25.797v25.712c0 2.415-2.034 4.024-4.702 4.024-2.669 0-4.702-1.609-4.702-4.024v-35.794c-.17-2.753 1.948-5.125 4.702-5.295h.762c2.626 0 4.279.805 7.117 4.702l18.129 24.569v-25.331c0-2.415 2.034-4.024 4.702-4.024 2.669 0 4.702 1.609 4.702 4.024v36.471c0 2.754-2.838 4.617-5.634 4.617h-.042v.043Z" fill="#fff"/><path d="M482.219 441.633c-37.101.201-52.862-21.288-56.332-42.072-.354-2.088-3.408-2.075-3.837 0l-.025.125c-3.559 20.684-19.295 41.985-56.143 41.846h-.126c-2.335.252-2.348 3.848 0 3.835 37.1-.201 52.862 21.288 56.332 42.072.354 2.088 3.407 2.075 3.836 0l.026-.125c3.558-20.71 19.345-42.047 56.294-41.834 2.348 0 2.335-3.583 0-3.835" fill="url(#b)"/><defs><linearGradient id="a" x1="0" y1="92.5" x2="544" y2="544" gradientUnits="userSpaceOnUse"><stop stop-color="#13264D"/><stop offset="1" stop-color="#019ADC"/></linearGradient><linearGradient id="b" x1="364.002" y1="443.494" x2="483.998" y2="443.494" gradientUnits="userSpaceOnUse"><stop offset="1" stop-color="#fff"/></linearGradient></defs></svg>